<?xml version="1.0" encoding="UTF-8" standalone="no"?>
<svg
   xmlns:dc="http://purl.org/dc/elements/1.1/"
   xmlns:cc="http://creativecommons.org/ns#"
   xmlns:rdf="http://www.w3.org/1999/02/22-rdf-syntax-ns#"
   xmlns:svg="http://www.w3.org/2000/svg"
   xmlns="http://www.w3.org/2000/svg"
   xmlns:sodipodi="http://sodipodi.sourceforge.net/DTD/sodipodi-0.dtd"
   xmlns:inkscape="http://www.inkscape.org/namespaces/inkscape"
   width="20"
   height="20.007"
   viewBox="0 0 5.2916665 5.2935189"
   version="1.1"
   id="svg1537"
   inkscape:version="1.0.2 (e86c870879, 2021-01-15, custom)"
   sodipodi:docname="github-logo.svg">
  <defs
     id="defs1531" />
  <sodipodi:namedview
     id="base"
     pagecolor="#ffffff"
     bordercolor="#666666"
     borderopacity="1.0"
     inkscape:pageopacity="0.0"
     inkscape:pageshadow="2"
     inkscape:zoom="31.678384"
     inkscape:cx="9.2686689"
     inkscape:cy="16.290766"
     inkscape:document-units="px"
     inkscape:current-layer="layer1"
     inkscape:document-rotation="0"
     showgrid="false"
     units="px"
     inkscape:window-width="1267"
     inkscape:window-height="728"
     inkscape:window-x="78"
     inkscape:window-y="0"
     inkscape:window-maximized="0" />
  <metadata
     id="metadata1534">
    <rdf:RDF>
      <cc:Work
         rdf:about="">
        <dc:format>image/svg+xml</dc:format>
        <dc:type
           rdf:resource="http://purl.org/dc/dcmitype/StillImage" />
        <dc:title></dc:title>
      </cc:Work>
    </rdf:RDF>
  </metadata>
  <g
     inkscape:label="Layer 1"
     inkscape:groupmode="layer"
     id="layer1">
    <path
       d="m 2.6532089,5.2966629 c -1.4685,0.005 -2.67690002,-1.21688 -2.64080002,-2.71299 0.034,-1.42181 1.21260002,-2.59724008 2.67800002,-2.58025008 1.4515,0.0181 2.6492,1.22536008 2.6121,2.71616008 -0.035,1.41755 -1.2042,2.58556 -2.6493,2.57708 z m -0.3037,-1.2689 c -0.1295,-0.0415 -0.2612,-0.0722 -0.3823,-0.12639 -0.2463,-0.1104 -0.4024,-0.30155 -0.4523,-0.5702 -0.032,-0.1741 -0.018,-0.34935 0,-0.52348 0.018,-0.15399 0.064,-0.29733 0.1806,-0.40881 0.01,-0.008 0.01,-0.0331 0.01,-0.0456 -0.056,-0.15399 -0.05,-0.30793 -0.01,-0.46403 0.013,-0.0467 0.036,-0.0521 0.076,-0.0392 0.1062,0.0331 0.1921,0.0967 0.2654,0.1772 0.039,0.0425 0.074,0.0892 0.1115,0.13387 0.2208,-0.14342 0.8526,-0.14342 1.0841,-0.002 0.045,-0.0521 0.087,-0.10627 0.1349,-0.15605 0.071,-0.0733 0.154,-0.12949 0.2548,-0.15709 0.033,-0.0103 0.051,-0.002 0.063,0.0331 0.052,0.15399 0.062,0.30792 0,0.46189 -0.013,0.0307 -0.01,0.0511 0.013,0.0743 0.073,0.0702 0.1179,0.15812 0.1414,0.25691 0.045,0.18365 0.054,0.37164 0.042,0.55851 -0.013,0.20068 -0.089,0.37695 -0.2368,0.51817 -0.1243,0.11788 -0.2729,0.18804 -0.4364,0.22931 -0.059,0.0155 -0.1189,0.0258 -0.1826,0.0382 0.082,0.12536 0.1018,0.26121 0.099,0.40349 0,0.15193 0,0.30476 0,0.4566 0,0.0181 0,0.0371 0,0.0563 0.9694,-0.17618 1.9484,-1.14148 1.8412,-2.47832 -0.1009,-1.27527 -1.2296,-2.25427008 -2.5357,-2.12899008 -1.22,0.11684 -2.19900002,1.20519008 -2.08860002,2.52397008 0.1052,1.24767 1.11600002,1.99519 1.90700002,2.09288 0,-0.0903 0,-0.18056 0,-0.27184 -0.044,0.005 -0.083,0.0129 -0.1209,0.0155 -0.2846,0.032 -0.5108,-0.0954 -0.6371,-0.34935 -0.069,-0.13903 -0.1424,-0.27818 -0.2783,-0.36738 -0.015,-0.0103 -0.023,-0.0276 -0.036,-0.0435 0.013,-0.008 0.018,-0.0129 0.023,-0.0155 0.01,-0.003 0.018,-0.005 0.026,-0.005 0.096,-0.005 0.1858,0.0103 0.2569,0.0776 0.047,0.0436 0.089,0.0957 0.1244,0.1496 0.1338,0.20919 0.3642,0.29732 0.5988,0.22725 0.032,-0.0103 0.05,-0.0232 0.053,-0.0606 0.01,-0.0998 0.034,-0.19423 0.088,-0.27076 z"
       id="path2635"
       style="fill:#b11a5d;fill-opacity:1;stroke-width:0.0106183" />
  </g>
</svg>
