<svg xmlns="http://www.w3.org/2000/svg" width="126.5" height="40" viewBox="0 0 33.47 10.583"><path style="fill:#eb001b;fill-opacity:1;stroke:none;stroke-width:.132286;stroke-linecap:round;stroke-linejoin:round;stroke-miterlimit:4;stroke-dasharray:none" transform="matrix(.12453 -.00296 .00296 .12453 -28.299 -10.814)" d="M258.545 133.487c-1.603.877-21.269.426-22.83-.523-1.56-.95-11.003-18.207-10.96-20.033.041-1.827 10.265-18.632 11.867-19.51 1.603-.876 21.27-.425 22.83.524 1.56.95 11.003 18.207 10.961 20.033-.042 1.826-10.265 18.632-11.868 19.51z"/><path style="fill:#ff5f00;fill-opacity:1;stroke:none;stroke-width:.132292" transform="matrix(.12453 -.00296 .00296 .12453 -28.295 -5.328)" d="M258.545 133.487c-1.603.877-21.269.426-22.83-.523-1.56-.95-11.003-18.207-10.96-20.033.041-1.827 10.265-18.632 11.867-19.51 1.603-.876 21.27-.425 22.83.524 1.56.95 11.003 18.207 10.961 20.033-.042 1.826-10.265 18.632-11.868 19.51z"/><path style="fill:#ffbe00;fill-opacity:1;stroke:none;stroke-width:.132292;stroke-opacity:1" transform="matrix(.12453 -.00296 .00296 .12453 -23.546 -8.075)" d="M258.545 133.487c-1.603.877-21.269.426-22.83-.523-1.56-.95-11.003-18.207-10.96-20.033.041-1.827 10.265-18.632 11.867-19.51 1.603-.876 21.27-.425 22.83.524 1.56.95 11.003 18.207 10.961 20.033-.042 1.826-10.265 18.632-11.868 19.51z"/><path style="opacity:1;fill:#000;fill-opacity:1;stroke:none;stroke-width:.396875" d="M12.485 1.298c.036.09.053.283.053.581s-.05.847-.152 1.646c-.098.799-.147 1.256-.147 1.373 0 .116.004.202.013.259a.49.49 0 0 0 .067.17c.066.107.234.167.505.179a6.214 6.214 0 0 1-.017-.403c0-.441.043-1.022.129-1.743.086-.722.13-1.148.13-1.28 0-.22-.042-.39-.125-.51-.08-.122-.233-.212-.456-.272Zm14.403 0c.035.09.053.264.053.523 0 .576-.078 1.418-.236 2.527-.054.36-.081.605-.081.733s.037.222.112.282c.074.056.197.085.367.085.03 0 .092-.003.187-.01a3.509 3.509 0 0 1-.027-.522c0-.248.039-.512.117-.792.08-.283.177-.504.29-.662.117-.158.23-.237.34-.237.063 0 .11.027.143.08.036.052.054.117.054.198a.74.74 0 0 1-.17.46.635.635 0 0 1-.25.174c-.108.045-.23.07-.367.072 0 .08.009.128.027.143.074 0 .131-.001.17-.004.173.474.304.797.393.97.227.438.49.658.792.658.083 0 .179-.014.286-.04-.116-.111-.269-.317-.456-.618a4.073 4.073 0 0 1-.43-.912l-.053-.166a.983.983 0 0 0 .429-.299.732.732 0 0 0 .157-.47.623.623 0 0 0-.166-.447.534.534 0 0 0-.402-.174c-.08 0-.163.02-.246.058-.331.155-.55.538-.658 1.15.021-.215.06-.561.117-1.038.06-.477.089-.79.089-.94 0-.22-.042-.39-.125-.51-.08-.122-.233-.212-.456-.272zm-3.582.501a1.57 1.57 0 0 0-.22.018 1.08 1.08 0 0 0-.066.317c0 .215.154.322.46.322.063 0 .136-.006.22-.018.044-.134.066-.24.066-.317 0-.215-.153-.322-.46-.322zm-3.35.944c.045.253.068.564.068.934 0 .37-.047.897-.14 1.583-.089.682-.133 1.06-.133 1.131 0 .197.058.33.174.398.12.072.301.112.546.12a5.766 5.766 0 0 1-.09-1.085c0-.415.038-.813.112-1.195.075-.384.182-.687.322-.907.14-.22.301-.331.483-.331.096 0 .169.045.22.134.053.09.08.206.08.349 0 .307-.087.615-.26.925-.172.31-.405.5-.697.568.125.048.249.072.371.072.343 0 .637-.157.881-.47.245-.313.366-.693.366-1.14 0-.28-.06-.493-.182-.64a.56.56 0 0 0-.457-.223c-.185 0-.372.072-.563.215a1.639 1.639 0 0 0-.47.599c0-.31-.046-.546-.138-.707-.09-.16-.254-.27-.492-.33Zm-3.496.022c.05.2.076.419.076.657 0 .236-.031.553-.094.953-.062.399-.094.629-.094.688 0 .138.037.236.112.295.074.06.197.09.367.09.027 0 .087-.003.183-.01a11.54 11.54 0 0 1-.023-.38c0-.244.02-.473.059-.688.042-.218.092-.395.152-.532.06-.14.122-.249.187-.326.066-.08.127-.121.184-.121.077 0 .116.047.116.143a.655.655 0 0 1-.138.42.389.389 0 0 0 .147.036.429.429 0 0 0 .371-.192.704.704 0 0 0 .139-.42.65.65 0 0 0-.098-.376.332.332 0 0 0-.296-.148c-.128 0-.268.092-.42.277-.15.182-.277.467-.384.854.026-.155.04-.315.04-.482a.76.76 0 0 0-.13-.443c-.086-.128-.239-.227-.456-.295zm15.391 0c.05.2.076.419.076.657 0 .236-.03.553-.093.953-.063.399-.095.629-.095.688 0 .138.038.236.112.295.075.06.197.09.367.09.027 0 .088-.003.183-.01-.014-.223-.022-.35-.022-.38 0-.244.02-.473.058-.688.042-.218.092-.395.152-.532.06-.14.123-.249.188-.326.066-.08.126-.121.183-.121.078 0 .116.047.116.143a.655.655 0 0 1-.138.42.391.391 0 0 0 .148.036.428.428 0 0 0 .37-.192.704.704 0 0 0 .14-.42.65.65 0 0 0-.099-.376.33.33 0 0 0-.295-.148c-.128 0-.269.092-.42.277-.15.182-.278.467-.385.854.027-.155.04-.315.04-.482a.76.76 0 0 0-.13-.443c-.086-.128-.238-.227-.456-.295Zm-21.437.03a1.19 1.19 0 0 0-.733.547 1.798 1.798 0 0 0-.278.997c0 .376.096.664.287.867.193.2.42.3.68.3.185 0 .354-.035.51-.103.274-.12.485-.336.634-.649.135-.277.201-.58.201-.912 0-.295-.062-.53-.187-.706-.125-.176-.278-.264-.456-.264-.18 0-.363.058-.55.174a1.129 1.129 0 0 0-.287.277c-.089.123-.165.268-.228.435.06-.373.24-.664.542-.873 0-.02-.016-.04-.045-.058a.142.142 0 0 0-.09-.031zm4.096 0a1.19 1.19 0 0 0-.733.547 1.798 1.798 0 0 0-.277.997c0 .376.095.664.286.867.194.2.42.3.68.3.184 0 .354-.035.51-.103.273-.12.485-.336.634-.649.134-.277.201-.58.201-.912 0-.295-.062-.53-.187-.706-.126-.176-.278-.264-.457-.264-.178 0-.362.058-.55.174a1.129 1.129 0 0 0-.286.277c-.09.123-.165.268-.228.435.06-.373.24-.664.541-.873 0-.02-.015-.04-.045-.058a.142.142 0 0 0-.089-.031zm8.662.037a2.03 2.03 0 0 0-.183.009c.017.098.026.238.026.42s-.024.437-.071.765a5.622 5.622 0 0 0-.072.68c0 .232.04.41.12.532.081.119.238.208.47.268-.035-.08-.053-.258-.053-.533.003-.277.04-.627.111-1.05.075-.426.113-.662.113-.707 0-.14-.035-.238-.103-.295-.066-.06-.185-.089-.358-.089zm-14.864.027c-.412 0-.738.156-.98.47-.24.31-.361.683-.361 1.122 0 .342.085.605.255.787a.838.838 0 0 0 .625.268 1.133 1.133 0 0 0 1.006-.604c0-.086-.053-.141-.16-.165a1.055 1.055 0 0 1-.305.322.619.619 0 0 1-.344.116c-.292 0-.438-.249-.438-.747 0-.319.058-.614.174-.885.116-.272.267-.407.452-.407.158 0 .237.09.237.273 0 .092-.02.193-.058.304a.75.75 0 0 1-.125.237c.071.03.143.044.215.044a.44.44 0 0 0 .357-.17.6.6 0 0 0 .143-.398.53.53 0 0 0-.174-.398c-.117-.113-.29-.17-.52-.17Zm17.176 0c-.412 0-.738.156-.98.47-.241.31-.362.683-.362 1.122 0 .342.085.605.255.787a.838.838 0 0 0 .626.268 1.133 1.133 0 0 0 1.006-.604c0-.086-.054-.141-.161-.165a1.054 1.054 0 0 1-.304.322.619.619 0 0 1-.344.116c-.292 0-.438-.249-.438-.747 0-.319.058-.614.174-.885.116-.272.267-.407.452-.407.158 0 .237.09.237.273 0 .092-.02.193-.059.304a.75.75 0 0 1-.125.237c.072.03.143.044.215.044a.44.44 0 0 0 .358-.17.6.6 0 0 0 .143-.398.529.529 0 0 0-.175-.398c-.116-.113-.289-.17-.518-.17Zm4.99 0c-.26 0-.496.08-.711.241-.215.158-.371.353-.47.586-.098.23-.147.472-.147.729 0 .343.094.61.281.804.188.191.407.287.658.287.414 0 .753-.201 1.015-.604 0-.086-.054-.141-.161-.165a1.054 1.054 0 0 1-.304.322.651.651 0 0 1-.367.116c-.128 0-.238-.063-.33-.188-.093-.125-.139-.311-.139-.559 0-.062.001-.108.004-.138.137.033.278.049.42.049.284 0 .522-.069.716-.206.197-.137.295-.346.295-.626a.626.626 0 0 0-.183-.47c-.123-.119-.315-.178-.577-.178Zm-.063.277c.078 0 .136.028.175.085.041.053.063.119.063.197a.684.684 0 0 1-.188.483c-.123.134-.313.2-.573.2h-.067c.033-.268.102-.496.206-.683.104-.188.232-.282.384-.282zm-19.616.062c.232 0 .348.24.348.716 0 .325-.063.618-.188.88-.125.26-.287.39-.487.39-.28 0-.42-.272-.42-.814 0-.26.076-.518.228-.778.152-.262.325-.394.519-.394zm4.095 0c.233 0 .35.24.35.716 0 .325-.064.618-.189.88-.125.26-.287.39-.487.39-.28 0-.42-.272-.42-.814 0-.26.076-.518.228-.778.152-.262.325-.394.518-.394z" transform="translate(-.117 1.22)"/></svg>